<?xml version="1.0" standalone="no"?>
<!DOCTYPE svg PUBLIC "-//W3C//DTD SVG 20010904//EN"
 "http://www.w3.org/TR/2001/REC-SVG-20010904/DTD/svg10.dtd">
<svg version="1.0" xmlns="http://www.w3.org/2000/svg"
 width="700.000000pt" height="700.000000pt" viewBox="0 0 700.000000 700.000000"
 preserveAspectRatio="xMidYMid meet">
<metadata>
Created by potrace 1.11, written by Peter Selinger 2001-2013
</metadata>
<g transform="translate(0.000000,700.000000) scale(0.100000,-0.100000)"
fill="#000000" stroke="none">
<path d="M3376 6974 c-34 -12 -97 -38 -141 -59 -44 -20 -100 -46 -125 -57 -25
-11 -78 -36 -118 -54 -41 -19 -75 -34 -77 -34 -2 0 -46 -20 -97 -44 -88 -41
-135 -63 -238 -108 -25 -11 -67 -31 -95 -43 -27 -13 -223 -102 -435 -198 -212
-96 -405 -184 -430 -195 -25 -11 -72 -33 -105 -47 -57 -26 -330 -150 -432
-197 -27 -11 -90 -41 -142 -65 -51 -23 -95 -43 -97 -43 -2 0 -37 -15 -77 -34
-39 -19 -189 -87 -332 -151 -143 -64 -280 -130 -305 -147 -89 -59 -131 -148
-125 -264 6 -118 65 -209 168 -258 64 -30 71 -33 552 -251 215 -97 410 -186
435 -197 25 -11 218 -99 430 -195 212 -96 418 -190 458 -209 41 -19 75 -34 77
-34 2 0 36 -15 77 -34 40 -18 249 -113 463 -211 523 -237 569 -258 648 -295
132 -61 243 -63 357 -6 27 14 50 23 50 19 0 -3 6 -1 13 5 6 5 84 42 172 82 88
40 189 85 225 102 36 16 229 104 430 195 201 91 403 183 448 204 46 22 86 39
88 39 2 0 52 23 110 50 58 28 108 50 109 50 2 0 47 20 100 45 53 25 111 51
128 59 122 51 1308 594 1332 609 72 47 129 165 124 259 -5 83 -45 170 -104
221 -25 22 -104 60 -365 177 -113 51 -239 108 -280 127 -41 19 -190 87 -330
150 -140 63 -280 126 -310 140 -57 27 -143 66 -220 100 -234 106 -321 146
-468 214 -46 22 -85 39 -87 39 -2 0 -39 16 -82 36 -43 20 -111 52 -151 70 -41
19 -75 34 -77 34 -2 0 -43 19 -92 41 -48 23 -126 58 -173 79 -47 21 -115 52
-152 69 -355 163 -487 221 -535 231 -64 15 -126 10 -197 -16z"/>
<path d="M905 4105 c-59 -29 -129 -60 -503 -230 -254 -115 -287 -133 -322
-173 -104 -117 -103 -308 3 -416 26 -28 160 -106 181 -106 2 0 42 -17 88 -39
45 -21 180 -82 298 -136 118 -53 252 -115 298 -136 46 -21 85 -39 87 -39 1 0
41 -17 87 -39 45 -21 124 -56 173 -79 50 -22 119 -53 155 -70 56 -25 139 -63
420 -189 30 -14 78 -35 105 -48 125 -58 206 -95 209 -95 2 0 42 -17 88 -39 45
-21 227 -104 403 -184 176 -79 345 -156 375 -170 367 -168 368 -168 455 -166
70 2 113 14 225 66 51 24 440 200 540 245 25 11 79 36 120 55 41 19 208 95
370 168 162 73 324 146 360 163 36 16 162 74 280 127 118 53 240 108 270 122
30 14 154 70 275 125 121 55 234 106 250 113 17 8 156 71 310 140 369 167 363
164 408 209 59 58 81 116 82 211 0 68 -4 89 -28 137 -50 101 -45 99 -667 378
-124 55 -233 105 -243 111 -19 10 -7 15 -362 -146 -33 -15 -152 -69 -265 -120
-113 -51 -232 -105 -265 -120 -33 -15 -87 -39 -120 -55 -33 -15 -152 -69 -265
-120 -113 -51 -239 -108 -280 -127 -41 -19 -100 -45 -130 -58 -30 -13 -98 -43
-150 -68 -52 -24 -115 -53 -140 -64 -25 -12 -67 -31 -95 -43 -206 -92 -256
-111 -323 -125 -78 -16 -213 -21 -279 -10 -69 12 -170 45 -250 81 -43 20 -96
44 -118 54 -547 248 -753 341 -960 435 -137 62 -281 127 -320 145 -38 18 -160
73 -270 122 -110 50 -229 104 -265 120 -144 66 -238 108 -241 107 -2 0 -26
-11 -54 -24z"/>
<path d="M850 2331 c-58 -26 -233 -105 -390 -176 -157 -71 -306 -142 -331
-158 -86 -56 -135 -163 -125 -275 12 -123 72 -203 196 -259 85 -39 139 -64
225 -103 33 -15 80 -37 105 -48 25 -11 144 -65 265 -120 121 -55 461 -209 755
-342 294 -133 573 -260 618 -281 46 -22 86 -39 88 -39 2 0 36 -15 76 -34 147
-68 207 -95 351 -160 80 -36 185 -84 233 -106 47 -22 88 -40 90 -40 4 0 50
-21 213 -96 158 -74 195 -87 263 -90 91 -4 106 0 313 96 33 15 152 69 265 120
113 51 234 106 270 122 36 16 184 84 330 150 146 66 288 130 315 143 39 17
709 321 1065 482 30 14 105 48 165 75 61 28 137 63 170 78 545 245 547 246
596 348 32 67 32 196 0 264 -31 64 -93 119 -185 162 -43 20 -79 36 -82 36 -2
0 -36 15 -76 34 -102 48 -505 230 -551 250 -41 17 -46 16 -145 -30 -63 -29
-260 -119 -337 -154 -27 -12 -79 -36 -115 -52 -36 -17 -108 -49 -160 -73 -52
-24 -124 -56 -160 -72 -36 -17 -103 -47 -150 -68 -77 -34 -142 -64 -285 -130
-27 -13 -115 -52 -195 -88 -80 -36 -183 -83 -230 -104 -236 -111 -541 -243
-590 -257 -77 -21 -123 -27 -215 -27 -172 1 -173 1 -860 313 -121 55 -245 111
-275 125 -30 14 -102 47 -160 73 -58 26 -220 100 -360 163 -140 63 -284 128
-320 145 -82 38 -158 72 -285 129 -55 25 -131 60 -170 78 -38 18 -79 35 -90
38 -12 4 -60 -12 -125 -42z"/>
</g>
</svg>
